<mxfile host="app.diagrams.net" agent="Mozilla/5.0 (Windows NT 10.0; Win64; x64) AppleWebKit/537.36 (KHTML, like Gecko) Chrome/138.0.0.0 Safari/537.36" version="28.0.7">
  <diagram name="Page-1" id="gey6PPApiZkmzOn4r0xa">
    <mxGraphModel dx="601" dy="1426" grid="1" gridSize="10" guides="1" tooltips="1" connect="1" arrows="1" fold="1" page="1" pageScale="1" pageWidth="850" pageHeight="1100" math="0" shadow="0">
      <root>
        <mxCell id="0" />
        <mxCell id="1" parent="0" />
        <mxCell id="uqdxYvnEKjpuuktX2DQg-3" value="" style="strokeWidth=2;html=1;shape=mxgraph.flowchart.start_2;whiteSpace=wrap;" vertex="1" parent="1">
          <mxGeometry x="390" width="100" height="100" as="geometry" />
        </mxCell>
        <mxCell id="uqdxYvnEKjpuuktX2DQg-4" style="edgeStyle=orthogonalEdgeStyle;rounded=0;orthogonalLoop=1;jettySize=auto;html=1;entryX=0;entryY=0.5;entryDx=0;entryDy=0;entryPerimeter=0;" edge="1" parent="1" source="uqdxYvnEKjpuuktX2DQg-3">
          <mxGeometry relative="1" as="geometry">
            <mxPoint x="440" y="160" as="targetPoint" />
          </mxGeometry>
        </mxCell>
        <mxCell id="uqdxYvnEKjpuuktX2DQg-6" value="Enter Website" style="edgeLabel;html=1;align=center;verticalAlign=middle;resizable=0;points=[];" vertex="1" connectable="0" parent="uqdxYvnEKjpuuktX2DQg-4">
          <mxGeometry x="-0.4333" y="-4" relative="1" as="geometry">
            <mxPoint as="offset" />
          </mxGeometry>
        </mxCell>
        <mxCell id="uqdxYvnEKjpuuktX2DQg-8" style="edgeStyle=orthogonalEdgeStyle;rounded=0;orthogonalLoop=1;jettySize=auto;html=1;entryX=0;entryY=0.5;entryDx=0;entryDy=0;" edge="1" parent="1" source="uqdxYvnEKjpuuktX2DQg-7" target="uqdxYvnEKjpuuktX2DQg-14">
          <mxGeometry relative="1" as="geometry">
            <mxPoint x="570" y="210" as="targetPoint" />
          </mxGeometry>
        </mxCell>
        <mxCell id="uqdxYvnEKjpuuktX2DQg-9" value="Sign up" style="edgeLabel;html=1;align=center;verticalAlign=middle;resizable=0;points=[];" vertex="1" connectable="0" parent="uqdxYvnEKjpuuktX2DQg-8">
          <mxGeometry x="-0.1406" y="-4" relative="1" as="geometry">
            <mxPoint x="5" y="-4" as="offset" />
          </mxGeometry>
        </mxCell>
        <mxCell id="uqdxYvnEKjpuuktX2DQg-10" style="edgeStyle=orthogonalEdgeStyle;rounded=0;orthogonalLoop=1;jettySize=auto;html=1;" edge="1" parent="1" source="uqdxYvnEKjpuuktX2DQg-7">
          <mxGeometry relative="1" as="geometry">
            <mxPoint x="440" y="330" as="targetPoint" />
          </mxGeometry>
        </mxCell>
        <mxCell id="uqdxYvnEKjpuuktX2DQg-12" value="No Sign up" style="edgeLabel;html=1;align=center;verticalAlign=middle;resizable=0;points=[];" vertex="1" connectable="0" parent="uqdxYvnEKjpuuktX2DQg-10">
          <mxGeometry x="-0.2388" y="4" relative="1" as="geometry">
            <mxPoint as="offset" />
          </mxGeometry>
        </mxCell>
        <mxCell id="uqdxYvnEKjpuuktX2DQg-7" value="" style="strokeWidth=2;html=1;shape=mxgraph.flowchart.decision;whiteSpace=wrap;" vertex="1" parent="1">
          <mxGeometry x="390" y="160" width="100" height="100" as="geometry" />
        </mxCell>
        <mxCell id="uqdxYvnEKjpuuktX2DQg-13" value="Landing Page" style="rounded=1;whiteSpace=wrap;html=1;absoluteArcSize=1;arcSize=14;strokeWidth=2;" vertex="1" parent="1">
          <mxGeometry x="390" y="330" width="100" height="100" as="geometry" />
        </mxCell>
        <mxCell id="uqdxYvnEKjpuuktX2DQg-22" style="edgeStyle=orthogonalEdgeStyle;rounded=0;orthogonalLoop=1;jettySize=auto;html=1;" edge="1" parent="1" source="uqdxYvnEKjpuuktX2DQg-14" target="uqdxYvnEKjpuuktX2DQg-21">
          <mxGeometry relative="1" as="geometry" />
        </mxCell>
        <mxCell id="uqdxYvnEKjpuuktX2DQg-14" value="Landing Page" style="rounded=1;whiteSpace=wrap;html=1;absoluteArcSize=1;arcSize=14;strokeWidth=2;" vertex="1" parent="1">
          <mxGeometry x="570" y="160" width="100" height="100" as="geometry" />
        </mxCell>
        <mxCell id="uqdxYvnEKjpuuktX2DQg-19" style="edgeStyle=orthogonalEdgeStyle;rounded=0;orthogonalLoop=1;jettySize=auto;html=1;exitX=1;exitY=0.5;exitDx=0;exitDy=0;exitPerimeter=0;" edge="1" parent="1" source="uqdxYvnEKjpuuktX2DQg-15" target="uqdxYvnEKjpuuktX2DQg-7">
          <mxGeometry relative="1" as="geometry">
            <mxPoint x="570" y="370" as="targetPoint" />
            <Array as="points">
              <mxPoint x="510" y="520" />
              <mxPoint x="510" y="630" />
              <mxPoint x="320" y="630" />
              <mxPoint x="320" y="210" />
            </Array>
          </mxGeometry>
        </mxCell>
        <mxCell id="uqdxYvnEKjpuuktX2DQg-20" value="Yes" style="edgeLabel;html=1;align=center;verticalAlign=middle;resizable=0;points=[];" vertex="1" connectable="0" parent="uqdxYvnEKjpuuktX2DQg-19">
          <mxGeometry x="-0.4534" y="2" relative="1" as="geometry">
            <mxPoint as="offset" />
          </mxGeometry>
        </mxCell>
        <mxCell id="uqdxYvnEKjpuuktX2DQg-15" value="Create Portfolio" style="strokeWidth=2;html=1;shape=mxgraph.flowchart.decision;whiteSpace=wrap;" vertex="1" parent="1">
          <mxGeometry x="390" y="470" width="100" height="100" as="geometry" />
        </mxCell>
        <mxCell id="uqdxYvnEKjpuuktX2DQg-16" style="edgeStyle=orthogonalEdgeStyle;rounded=0;orthogonalLoop=1;jettySize=auto;html=1;entryX=0.5;entryY=0;entryDx=0;entryDy=0;entryPerimeter=0;" edge="1" parent="1" source="uqdxYvnEKjpuuktX2DQg-13" target="uqdxYvnEKjpuuktX2DQg-15">
          <mxGeometry relative="1" as="geometry" />
        </mxCell>
        <mxCell id="uqdxYvnEKjpuuktX2DQg-17" style="edgeStyle=orthogonalEdgeStyle;rounded=0;orthogonalLoop=1;jettySize=auto;html=1;entryX=0.02;entryY=0.36;entryDx=0;entryDy=0;entryPerimeter=0;" edge="1" parent="1" source="uqdxYvnEKjpuuktX2DQg-15" target="uqdxYvnEKjpuuktX2DQg-13">
          <mxGeometry relative="1" as="geometry">
            <Array as="points">
              <mxPoint x="440" y="600" />
              <mxPoint x="350" y="600" />
              <mxPoint x="350" y="366" />
            </Array>
          </mxGeometry>
        </mxCell>
        <mxCell id="uqdxYvnEKjpuuktX2DQg-18" value="No" style="edgeLabel;html=1;align=center;verticalAlign=middle;resizable=0;points=[];" vertex="1" connectable="0" parent="uqdxYvnEKjpuuktX2DQg-17">
          <mxGeometry x="-0.7475" y="2" relative="1" as="geometry">
            <mxPoint as="offset" />
          </mxGeometry>
        </mxCell>
        <mxCell id="uqdxYvnEKjpuuktX2DQg-23" style="edgeStyle=orthogonalEdgeStyle;rounded=0;orthogonalLoop=1;jettySize=auto;html=1;entryX=0.5;entryY=0;entryDx=0;entryDy=0;" edge="1" parent="1" source="uqdxYvnEKjpuuktX2DQg-21" target="uqdxYvnEKjpuuktX2DQg-24">
          <mxGeometry relative="1" as="geometry">
            <mxPoint x="620" y="450" as="targetPoint" />
          </mxGeometry>
        </mxCell>
        <mxCell id="uqdxYvnEKjpuuktX2DQg-21" value="Create Portfolio" style="rounded=1;whiteSpace=wrap;html=1;absoluteArcSize=1;arcSize=14;strokeWidth=2;" vertex="1" parent="1">
          <mxGeometry x="570" y="300" width="100" height="100" as="geometry" />
        </mxCell>
        <mxCell id="uqdxYvnEKjpuuktX2DQg-29" style="edgeStyle=orthogonalEdgeStyle;rounded=0;orthogonalLoop=1;jettySize=auto;html=1;entryX=0;entryY=0.5;entryDx=0;entryDy=0;" edge="1" parent="1" source="uqdxYvnEKjpuuktX2DQg-24" target="uqdxYvnEKjpuuktX2DQg-28">
          <mxGeometry relative="1" as="geometry" />
        </mxCell>
        <mxCell id="uqdxYvnEKjpuuktX2DQg-24" value="Upload Resume" style="rounded=1;whiteSpace=wrap;html=1;absoluteArcSize=1;arcSize=14;strokeWidth=2;" vertex="1" parent="1">
          <mxGeometry x="570" y="450" width="100" height="100" as="geometry" />
        </mxCell>
        <mxCell id="uqdxYvnEKjpuuktX2DQg-25" value="" style="strokeWidth=2;html=1;shape=mxgraph.flowchart.database;whiteSpace=wrap;" vertex="1" parent="1">
          <mxGeometry x="590" width="60" height="60" as="geometry" />
        </mxCell>
        <mxCell id="uqdxYvnEKjpuuktX2DQg-26" style="edgeStyle=orthogonalEdgeStyle;rounded=0;orthogonalLoop=1;jettySize=auto;html=1;entryX=0.5;entryY=1;entryDx=0;entryDy=0;entryPerimeter=0;" edge="1" parent="1" source="uqdxYvnEKjpuuktX2DQg-14" target="uqdxYvnEKjpuuktX2DQg-25">
          <mxGeometry relative="1" as="geometry" />
        </mxCell>
        <mxCell id="uqdxYvnEKjpuuktX2DQg-27" value="Save User info" style="edgeLabel;html=1;align=center;verticalAlign=middle;resizable=0;points=[];" vertex="1" connectable="0" parent="uqdxYvnEKjpuuktX2DQg-26">
          <mxGeometry x="0.02" y="1" relative="1" as="geometry">
            <mxPoint as="offset" />
          </mxGeometry>
        </mxCell>
        <mxCell id="uqdxYvnEKjpuuktX2DQg-30" style="edgeStyle=orthogonalEdgeStyle;rounded=0;orthogonalLoop=1;jettySize=auto;html=1;entryX=0;entryY=0.5;entryDx=0;entryDy=0;" edge="1" parent="1" source="uqdxYvnEKjpuuktX2DQg-28" target="uqdxYvnEKjpuuktX2DQg-31">
          <mxGeometry relative="1" as="geometry">
            <mxPoint x="860" y="500" as="targetPoint" />
          </mxGeometry>
        </mxCell>
        <mxCell id="uqdxYvnEKjpuuktX2DQg-28" value="AI Parses Resume" style="rounded=1;whiteSpace=wrap;html=1;absoluteArcSize=1;arcSize=14;strokeWidth=2;" vertex="1" parent="1">
          <mxGeometry x="720" y="450" width="100" height="100" as="geometry" />
        </mxCell>
        <mxCell id="uqdxYvnEKjpuuktX2DQg-34" style="edgeStyle=orthogonalEdgeStyle;rounded=0;orthogonalLoop=1;jettySize=auto;html=1;" edge="1" parent="1" source="uqdxYvnEKjpuuktX2DQg-31" target="uqdxYvnEKjpuuktX2DQg-35">
          <mxGeometry relative="1" as="geometry">
            <mxPoint x="1010" y="500" as="targetPoint" />
          </mxGeometry>
        </mxCell>
        <mxCell id="uqdxYvnEKjpuuktX2DQg-31" value="AI Generates Content for each section" style="rounded=1;whiteSpace=wrap;html=1;absoluteArcSize=1;arcSize=14;strokeWidth=2;" vertex="1" parent="1">
          <mxGeometry x="740" y="290" width="100" height="100" as="geometry" />
        </mxCell>
        <mxCell id="uqdxYvnEKjpuuktX2DQg-32" value="Sections For a Portfolio" style="text;html=1;align=center;verticalAlign=middle;resizable=0;points=[];autosize=1;strokeColor=none;fillColor=none;fontStyle=1;fontSize=19;" vertex="1" parent="1">
          <mxGeometry x="80" width="220" height="40" as="geometry" />
        </mxCell>
        <mxCell id="uqdxYvnEKjpuuktX2DQg-33" value="1. Header&lt;div&gt;2. Hero&lt;/div&gt;&lt;div&gt;3. About Me&lt;/div&gt;&lt;div&gt;4. Experience&lt;/div&gt;&lt;div&gt;5. Projects&lt;/div&gt;&lt;div&gt;6. Contact&lt;/div&gt;&lt;div&gt;7. Footer&lt;/div&gt;" style="text;html=1;align=left;verticalAlign=middle;resizable=0;points=[];autosize=1;strokeColor=none;fillColor=none;fontSize=14;spacing=2;" vertex="1" parent="1">
          <mxGeometry x="80" y="40" width="110" height="130" as="geometry" />
        </mxCell>
        <mxCell id="uqdxYvnEKjpuuktX2DQg-36" style="edgeStyle=orthogonalEdgeStyle;rounded=0;orthogonalLoop=1;jettySize=auto;html=1;" edge="1" parent="1" source="uqdxYvnEKjpuuktX2DQg-35" target="uqdxYvnEKjpuuktX2DQg-37">
          <mxGeometry relative="1" as="geometry">
            <mxPoint x="1160" y="500" as="targetPoint" />
          </mxGeometry>
        </mxCell>
        <mxCell id="uqdxYvnEKjpuuktX2DQg-35" value="AI Gives User option to choose theme" style="rounded=1;whiteSpace=wrap;html=1;absoluteArcSize=1;arcSize=14;strokeWidth=2;" vertex="1" parent="1">
          <mxGeometry x="890" y="290" width="100" height="100" as="geometry" />
        </mxCell>
        <mxCell id="uqdxYvnEKjpuuktX2DQg-38" style="edgeStyle=orthogonalEdgeStyle;rounded=0;orthogonalLoop=1;jettySize=auto;html=1;" edge="1" parent="1" source="uqdxYvnEKjpuuktX2DQg-37" target="uqdxYvnEKjpuuktX2DQg-39">
          <mxGeometry relative="1" as="geometry">
            <mxPoint x="1290" y="500" as="targetPoint" />
          </mxGeometry>
        </mxCell>
        <mxCell id="uqdxYvnEKjpuuktX2DQg-37" value="AI chooses portfolio components based on selection" style="rounded=1;whiteSpace=wrap;html=1;absoluteArcSize=1;arcSize=14;strokeWidth=2;" vertex="1" parent="1">
          <mxGeometry x="890" y="150" width="100" height="100" as="geometry" />
        </mxCell>
        <mxCell id="uqdxYvnEKjpuuktX2DQg-40" style="edgeStyle=orthogonalEdgeStyle;rounded=0;orthogonalLoop=1;jettySize=auto;html=1;" edge="1" parent="1" source="uqdxYvnEKjpuuktX2DQg-39" target="uqdxYvnEKjpuuktX2DQg-41">
          <mxGeometry relative="1" as="geometry">
            <mxPoint x="1430" y="500" as="targetPoint" />
          </mxGeometry>
        </mxCell>
        <mxCell id="uqdxYvnEKjpuuktX2DQg-39" value="AI fills content inside template, and makes a few styling changes" style="rounded=1;whiteSpace=wrap;html=1;absoluteArcSize=1;arcSize=14;strokeWidth=2;" vertex="1" parent="1">
          <mxGeometry x="1080" y="150" width="100" height="100" as="geometry" />
        </mxCell>
        <mxCell id="uqdxYvnEKjpuuktX2DQg-42" style="edgeStyle=orthogonalEdgeStyle;rounded=0;orthogonalLoop=1;jettySize=auto;html=1;" edge="1" parent="1" source="uqdxYvnEKjpuuktX2DQg-41" target="uqdxYvnEKjpuuktX2DQg-43">
          <mxGeometry relative="1" as="geometry">
            <mxPoint x="1570" y="500" as="targetPoint" />
          </mxGeometry>
        </mxCell>
        <mxCell id="uqdxYvnEKjpuuktX2DQg-41" value="User adds Media and other essential components" style="rounded=1;whiteSpace=wrap;html=1;absoluteArcSize=1;arcSize=14;strokeWidth=2;" vertex="1" parent="1">
          <mxGeometry x="1080" y="300" width="100" height="100" as="geometry" />
        </mxCell>
        <mxCell id="uqdxYvnEKjpuuktX2DQg-43" value="Portfolio is Uploaded" style="rounded=1;whiteSpace=wrap;html=1;absoluteArcSize=1;arcSize=14;strokeWidth=2;" vertex="1" parent="1">
          <mxGeometry x="1225" y="300" width="100" height="100" as="geometry" />
        </mxCell>
        <mxCell id="uqdxYvnEKjpuuktX2DQg-44" value="Backend Database Schema" style="text;html=1;align=center;verticalAlign=middle;resizable=0;points=[];autosize=1;strokeColor=none;fillColor=none;fontSize=24;fontStyle=1" vertex="1" parent="1">
          <mxGeometry x="300" y="720" width="320" height="40" as="geometry" />
        </mxCell>
        <mxCell id="uqdxYvnEKjpuuktX2DQg-45" value="&lt;div style=&quot;box-sizing: border-box; width: 100%; background: rgb(228, 228, 228); padding: 2px;&quot;&gt;Template&lt;/div&gt;&lt;table style=&quot;width:100%;font-size:1em;&quot; cellpadding=&quot;2&quot; cellspacing=&quot;0&quot;&gt;&lt;tbody&gt;&lt;tr&gt;&lt;td&gt;ID&lt;/td&gt;&lt;td&gt;&lt;br&gt;&lt;/td&gt;&lt;/tr&gt;&lt;tr&gt;&lt;td&gt;Name&lt;br&gt;Keywords&lt;br&gt;Theme&lt;br&gt;IsPaid&lt;br&gt;CreatedBy&lt;br&gt;DateOfCreation&lt;br&gt;&lt;br&gt;&lt;/td&gt;&lt;td&gt;&lt;br&gt;&lt;/td&gt;&lt;/tr&gt;&lt;/tbody&gt;&lt;/table&gt;" style="verticalAlign=top;align=left;overflow=fill;html=1;whiteSpace=wrap;" vertex="1" parent="1">
          <mxGeometry x="310" y="780" width="180" height="130" as="geometry" />
        </mxCell>
        <mxCell id="uqdxYvnEKjpuuktX2DQg-46" value="&lt;div style=&quot;box-sizing: border-box; width: 100%; background: rgb(228, 228, 228); padding: 2px;&quot;&gt;Template&lt;/div&gt;&lt;table style=&quot;width:100%;font-size:1em;&quot; cellpadding=&quot;2&quot; cellspacing=&quot;0&quot;&gt;&lt;tbody&gt;&lt;tr&gt;&lt;td&gt;ID&lt;/td&gt;&lt;td&gt;&lt;br&gt;&lt;/td&gt;&lt;/tr&gt;&lt;tr&gt;&lt;td&gt;Name&lt;br&gt;Keywords&lt;br&gt;Theme&lt;br&gt;IsPaid&lt;br&gt;CreatedBy&lt;br&gt;DateOfCreation&lt;br&gt;&lt;br&gt;&lt;/td&gt;&lt;td&gt;&lt;br&gt;&lt;/td&gt;&lt;/tr&gt;&lt;/tbody&gt;&lt;/table&gt;" style="verticalAlign=top;align=left;overflow=fill;html=1;whiteSpace=wrap;" vertex="1" parent="1">
          <mxGeometry x="510" y="780" width="180" height="130" as="geometry" />
        </mxCell>
      </root>
    </mxGraphModel>
  </diagram>
</mxfile>
